<svg width="21" height="26" viewBox="0 0 21 26" fill="none" xmlns="http://www.w3.org/2000/svg">
<path d="M19.5333 9.31955C19.3902 9.4306 16.8631 10.8546 16.8631 14.0209C16.8631 17.6832 20.0787 18.9788 20.175 19.0109C20.1602 19.0899 19.6641 20.7853 18.4795 22.5128C17.4233 24.033 16.3201 25.5508 14.642 25.5508C12.9638 25.5508 12.5319 24.576 10.5947 24.576C8.70674 24.576 8.03548 25.5829 6.50046 25.5829C4.96544 25.5829 3.89438 24.1762 2.66291 22.4486C1.23648 20.4201 0.0839844 17.2686 0.0839844 14.2775C0.0839844 9.47996 3.20338 6.93558 6.27342 6.93558C7.90468 6.93558 9.26448 8.00664 10.2887 8.00664C11.2635 8.00664 12.7837 6.87141 14.6395 6.87141C15.3429 6.87141 17.87 6.93558 19.5333 9.31955ZM13.7585 4.84035C14.526 3.9297 15.0689 2.66615 15.0689 1.4026C15.0689 1.22738 15.0541 1.04969 15.022 0.906555C13.7733 0.953445 12.2876 1.73823 11.3918 2.77721C10.6884 3.5768 10.032 4.84035 10.032 6.12118C10.032 6.31367 10.0641 6.50617 10.0789 6.56786C10.1579 6.58267 10.2862 6.59995 10.4145 6.59995C11.5349 6.59995 12.9441 5.84971 13.7585 4.84035Z" fill="black"/>
</svg>
