<svg width="26" height="26" viewBox="0 0 26 26" fill="none" xmlns="http://www.w3.org/2000/svg">
<path d="M23.9431 13.5103C23.9431 12.7083 23.8711 11.9371 23.7375 11.1967H13.0845V15.5772H19.1719C18.9045 16.9859 18.1025 18.1787 16.8994 18.9808V21.8291H20.5704C22.7092 19.8548 23.9431 16.9551 23.9431 13.5103V13.5103Z" fill="black"/>
<path d="M13.086 24.5603C16.14 24.5603 18.7004 23.5526 20.5719 21.8251L16.9009 18.9768C15.8932 19.6554 14.6079 20.0667 13.086 20.0667C10.1451 20.0667 7.64639 18.0822 6.75179 15.4086H2.98828V18.3289C4.84947 22.0205 8.66439 24.5603 13.086 24.5603Z" fill="black"/>
<path d="M6.75129 15.3927C6.52507 14.7141 6.3914 13.9943 6.3914 13.2436C6.3914 12.493 6.52507 11.7732 6.75129 11.0945V8.17419H2.98779C2.21657 9.69605 1.77441 11.4133 1.77441 13.2436C1.77441 15.074 2.21657 16.7912 2.98779 18.313L5.91839 16.0303L6.75129 15.3927Z" fill="black"/>
<path d="M13.086 6.44534C14.7518 6.44534 16.2325 7.02118 17.4151 8.13172L20.6541 4.89263C18.6901 3.06229 16.14 1.94147 13.086 1.94147C8.66439 1.94147 4.84947 4.48132 2.98828 8.18313L6.75179 11.1035C7.64639 8.42992 10.1451 6.44534 13.086 6.44534Z" fill="black"/>
</svg>
