<svg width="353" height="117" viewBox="0 0 353 117" fill="none" xmlns="http://www.w3.org/2000/svg">
<rect width="36.1846" height="36.1846" transform="matrix(1 1.74846e-07 1.74846e-07 -1 316.815 116.092)" fill="#202020"/>
<rect width="36.1846" height="36.1846" transform="matrix(1 1.74846e-07 1.74846e-07 -1 276.861 116.092)" fill="#A0DDFF"/>
<rect width="36.1846" height="36.1846" transform="matrix(1 1.74846e-07 1.74846e-07 -1 236.908 116.092)" fill="#A0DDFF"/>
<rect width="36.1846" height="36.1846" transform="matrix(1 1.74846e-07 1.74846e-07 -1 196.954 116.092)" fill="#A0DDFF"/>
<rect width="36.1846" height="36.1846" transform="matrix(1 1.74846e-07 1.74846e-07 -1 39.9541 116.092)" fill="#A0DDFF"/>
<rect width="36.1846" height="36.1846" transform="matrix(1 1.74846e-07 1.74846e-07 -1 157 76.2676)" fill="#A0DDFF"/>
<rect width="36.1846" height="36.1846" transform="matrix(1 1.74846e-07 1.74846e-07 -1 0 76.2676)" fill="#A0DDFF"/>
<rect width="36.1846" height="36.1846" transform="matrix(1 1.74846e-07 1.74846e-07 -1 0 36.1846)" fill="#A0DDFF"/>
<rect width="36.1846" height="36.1846" transform="matrix(1 1.74846e-07 1.74846e-07 -1 316.815 76.1383)" fill="#A0DDFF"/>
<rect width="36.1846" height="36.1846" transform="matrix(1 1.74846e-07 1.74846e-07 -1 276.861 76.1383)" fill="#A0DDFF"/>
<rect width="36.1846" height="36.1846" transform="matrix(1 1.74846e-07 1.74846e-07 -1 236.908 76.1383)" fill="#EE4D1B"/>
<rect width="36.1846" height="36.1846" transform="matrix(1 1.74846e-07 1.74846e-07 -1 196.954 76.1383)" fill="#A0DDFF"/>
<rect width="36.1846" height="36.1846" transform="matrix(1 1.74846e-07 1.74846e-07 -1 316.815 36.1845)" fill="#EE4D1B"/>
<rect width="36.1846" height="36.1846" transform="matrix(1 1.74846e-07 1.74846e-07 -1 276.861 36.1845)" fill="#A0DDFF"/>
</svg>
