<svg width="561" height="333" viewBox="0 0 561 333" fill="none" xmlns="http://www.w3.org/2000/svg">
<rect width="103.569" height="103.569" transform="matrix(1 1.74846e-07 1.74846e-07 -1 457.431 332.615)" fill="#202020"/>
<rect width="103.569" height="103.569" transform="matrix(1 1.74846e-07 1.74846e-07 -1 343.073 332.615)" fill="#A0DDFF"/>
<rect width="103.569" height="103.569" transform="matrix(1 1.74846e-07 1.74846e-07 -1 228.715 332.615)" fill="#A0DDFF"/>
<rect width="103.569" height="103.569" transform="matrix(1 1.74846e-07 1.74846e-07 -1 114.358 332.615)" fill="#A0DDFF"/>
<rect width="103.569" height="103.569" transform="matrix(1 1.74846e-07 1.74846e-07 -1 0 218.628)" fill="#A0DDFF"/>
<rect width="103.569" height="103.569" transform="matrix(1 1.74846e-07 1.74846e-07 -1 457.431 218.258)" fill="#A0DDFF"/>
<rect width="103.569" height="103.569" transform="matrix(1 1.74846e-07 1.74846e-07 -1 343.073 218.258)" fill="#A0DDFF"/>
<rect width="103.569" height="103.569" transform="matrix(1 1.74846e-07 1.74846e-07 -1 228.715 218.258)" fill="#EE4D1B"/>
<rect width="103.569" height="103.569" transform="matrix(1 1.74846e-07 1.74846e-07 -1 114.358 218.258)" fill="#A0DDFF"/>
<rect width="103.569" height="103.569" transform="matrix(1 1.74846e-07 1.74846e-07 -1 457.431 103.9)" fill="#EE4D1B"/>
<rect width="103.569" height="103.569" transform="matrix(1 1.74846e-07 1.74846e-07 -1 343.073 103.9)" fill="#A0DDFF"/>
</svg>
