<svg width="132" height="68" viewBox="0 0 132 68" fill="none" xmlns="http://www.w3.org/2000/svg">
<path d="M36.4786 61.4132C35.7797 61.4132 33.9785 61.9524 31.0752 63.0309C28.1718 64.1634 25.2685 65.2149 22.3651 66.1855C19.4618 67.1562 16.2896 67.7493 12.8486 67.965C9.40759 68.1807 6.77307 67.3988 4.94503 65.6193C3.00947 64.379 1.63844 61.5211 0.831954 57.0453C0.0792338 52.5696 -0.162712 47.5546 0.106117 42.0004C0.374945 36.4462 0.69754 30.6763 1.0739 24.6907C1.50403 18.705 1.90727 13.6092 2.28363 9.40308C2.71376 5.19697 2.68687 2.1772 2.20298 0.343769C2.41804 0.289845 2.71376 0.235921 3.09012 0.181994C3.46648 0.12807 4.16543 0.074145 5.18698 0.0202212C6.26229 -0.0337025 7.25696 0.0202224 8.17098 0.181994C9.13876 0.289844 10.1872 0.586429 11.3163 1.07175C12.4454 1.55707 13.3863 2.20416 14.139 3.01303C14.9455 3.82189 15.5638 4.98127 15.9939 6.49115C16.4778 8.00104 16.6391 9.78055 16.4778 11.8297C14.8648 32.6984 14.354 47.1502 14.9455 55.1849C18.494 53.6211 21.8544 52.3 25.0265 51.2215C27.2309 50.5205 29.059 50.3857 30.5106 50.8171C31.9623 51.1945 33.0914 51.9764 33.8979 53.1628C34.7044 54.2952 35.2958 55.4815 35.6722 56.7218C36.0485 57.9081 36.2636 58.9866 36.3173 59.9572L36.4786 61.4132Z" fill="#5053CA"/>
<path d="M71.8727 36.9045L73.4857 38.1987C69.0231 46.557 63.4046 52.9471 56.6301 57.3689C50.8772 61.1436 46.0114 62.4108 42.0327 61.1705C37.8927 59.8224 36.0647 55.9129 36.5486 49.442C36.6023 48.5792 36.7099 47.6894 36.8712 46.7727C37.3551 44.0226 38.2153 41.6499 39.4519 39.6547C40.7423 37.6595 42.1402 36.1766 43.6457 35.2059C45.2049 34.1814 46.8447 33.4534 48.5652 33.022C50.3395 32.5367 51.8987 32.321 53.2429 32.3749C54.587 32.3749 55.7161 32.5097 56.6301 32.7793C57.8129 33.1568 58.7807 33.8308 59.5334 34.8015C60.2862 35.7182 60.7163 36.9315 60.8238 38.4414C60.9314 39.9513 60.3937 41.6499 59.2108 43.5373C57.329 46.6109 53.8343 48.0669 48.7265 47.9051C48.1351 53.2437 49.2911 55.6972 52.1944 55.2658C55.3666 54.7805 59.8023 51.4372 65.5014 45.2359C68.7812 41.6229 70.9049 38.8458 71.8727 36.9045ZM55.1784 37.2281C54.8558 37.2281 54.5601 37.2281 54.2913 37.2281C54.0225 37.2281 53.5923 37.3899 53.0009 37.7134C52.4632 37.983 51.9794 38.3875 51.5492 38.9267C51.1191 39.466 50.6621 40.3557 50.1782 41.596C49.6943 42.7823 49.3179 44.2113 49.0491 45.883C53.0278 46.1526 55.7161 44.8584 57.114 42.0004C57.329 41.5151 57.4903 40.9489 57.5979 40.3018C57.7054 39.6008 57.571 38.9267 57.1946 38.2796C56.8183 37.5786 56.1462 37.2281 55.1784 37.2281Z" fill="#5053CA"/>
<path d="M100.478 25.8231L101.849 27.6835L100.317 28.8968L98.6235 30.3527L96.4459 32.294C95.9083 32.7793 95.0749 33.5882 93.9458 34.7206L91.2038 37.4707L88.3811 40.4636L88.2198 40.6253C88.8112 42.1352 89.4026 43.726 89.9941 45.3976C90.6392 47.0154 91.0694 48.1478 91.2844 48.7949C91.5533 49.442 91.849 50.0891 92.1716 50.7362C92.5479 51.3833 92.8974 51.8416 93.22 52.1112C93.5426 52.3269 93.9996 52.4887 94.591 52.5966C95.3437 55.3467 95.3706 57.288 94.6717 58.4204C93.9727 59.5528 92.8436 60.3347 91.2844 60.7661C87.1445 61.5211 83.2733 58.0968 79.671 50.4935C78.7032 51.6798 78.0043 52.5696 77.5742 53.1628L75.3967 55.832L73.6224 58.1777C72.7621 59.3102 72.3051 59.9033 72.2514 59.9572L71.0416 61.575L67.735 58.9866L69.0254 57.4498C69.7244 56.587 70.2083 55.9938 70.4771 55.6702L72.4127 53.4054C72.6277 53.1358 72.9772 52.7044 73.4611 52.1112C73.9987 51.5181 74.402 51.0597 74.6708 50.7362C75.2622 50.0351 76.1494 49.0375 77.3322 47.7434C77.4935 47.5816 77.7355 47.285 78.0581 46.8536C77.5204 45.5055 76.6601 43.2676 75.4773 40.14C74.3482 37.0124 73.3804 34.5588 72.574 32.7793C71.7675 30.9459 70.961 29.5169 70.1545 28.4923C70.3696 28.2766 70.6921 28.007 71.1223 27.6835C71.5524 27.306 72.3858 26.9016 73.6224 26.4702C74.9128 25.9848 76.1494 25.8231 77.3322 25.9848C78.5151 26.0927 79.8861 26.8476 81.4453 28.2497C83.0045 29.6517 84.4024 31.7278 85.639 34.4779C85.7466 34.6936 86.1767 35.7182 86.9294 37.5516C87.0907 37.3899 87.3058 37.1742 87.5746 36.9045C87.8972 36.581 88.166 36.3114 88.3811 36.0957C88.6499 35.8261 88.8919 35.5834 89.1069 35.3677C89.537 34.9902 90.1016 34.4779 90.8005 33.8308C91.4995 33.1298 91.9027 32.7524 92.0103 32.6984L94.6717 30.3527C95.9621 29.2742 96.7417 28.6271 97.0105 28.4114C97.817 27.7643 98.4353 27.306 98.8654 27.0364L100.478 25.8231Z" fill="#5053CA"/>
<path d="M129.661 36.0957L132 36.9854C131.946 37.0394 131.57 37.8213 130.871 39.3311C130.226 40.841 129.5 42.4318 128.693 44.1035C127.941 45.7212 126.838 47.5816 125.387 49.6846C123.989 51.7877 122.537 53.6481 121.032 55.2658C119.526 56.8296 117.725 58.1508 115.628 59.2293C113.531 60.3078 111.408 60.82 109.257 60.7661C106.838 60.6583 105.01 59.6876 103.773 57.8542C102.59 55.9668 101.945 53.6481 101.837 50.8979C101.784 48.0939 101.891 45.3168 102.16 42.5666C102.429 39.8165 102.725 37.2551 103.047 34.8824C103.424 32.5097 103.531 31.0537 103.37 30.5145C103.692 30.4606 104.122 30.4066 104.66 30.3527C105.198 30.2449 106.139 30.2449 107.483 30.3527C108.881 30.4066 110.064 30.6493 111.031 31.0807C111.999 31.4582 112.833 32.2131 113.531 33.3455C114.23 34.4779 114.445 35.9339 114.177 37.7134C112.725 47.5816 112.967 52.8931 114.902 53.6481C115.709 53.9716 116.811 53.6481 118.209 52.6774C119.93 51.4911 121.731 49.5229 123.613 46.7727C125.548 43.9686 127.054 41.4881 128.129 39.3311L129.661 36.0957ZM113.935 24.0436C112.752 25.2299 111.327 25.8231 109.66 25.8231C107.994 25.8231 106.569 25.2299 105.386 24.0436C104.203 22.8572 103.612 21.4282 103.612 19.7566C103.612 18.0849 104.203 16.6559 105.386 15.4696C106.569 14.2832 107.994 13.6901 109.66 13.6901C111.327 13.6901 112.752 14.2832 113.935 15.4696C115.118 16.6559 115.709 18.0849 115.709 19.7566C115.709 21.4282 115.118 22.8572 113.935 24.0436Z" fill="#5053CA"/>
</svg>
